<?xml version="1.0" encoding="utf-8"?>
<svg id="master-artboard" viewBox="0 0 235.4569854736328 259.3852233886719" version="1.0" xmlns="http://www.w3.org/2000/svg" x="0px" y="0px" width="235.4569854736328px" height="259.3852233886719px" style="enable-background:new 0 0 1400 980;"><rect id="ee-background" x="0" y="0" width="235.4569854736328" height="259.3852233886719" style="fill: white; fill-opacity: 0; pointer-events: none;"/>

<g transform="matrix(1, 0, 0, 1, -105.75575065612793, -178.30912590026855)">
			<g>
				<path class="st1" d="M301,293.6c0,0,22.8,17.7,26.6,21.9c3.8,4.2-14.3,17-26.6,4.8C301,306.7,301,293.6,301,293.6z" style="fill: rgb(138, 208, 243);"/>
				<path class="st2" d="M313.1,328.5c-4.8,0-9.9-1.7-14.3-6.1c-0.6-0.6-0.9-1.3-0.9-2.2v-26.7c0-1.2,0.7-2.2,1.7-2.7&#10;&#9;&#9;&#9;&#9;&#9;c1-0.5,2.3-0.4,3.2,0.3c2.4,1.8,23.1,18,27,22.3c1.7,1.9,2.3,5.4-1.8,9.3C324.7,325.9,319.1,328.5,313.1,328.5z M304,318.9&#10;&#9;&#9;&#9;&#9;&#9;c5.1,4.4,10.7,3.6,13.7,2.7c4.1-1.2,6.5-3.5,7.1-4.6c-3.1-3.1-13.6-11.5-20.8-17.2V318.9z" style="fill: rgb(79, 60, 54);"/>
			</g>
			<path d="M 136.800003 289.399994 H 304 V 344.999992 H 136.800003 V 289.399994 Z" class="st3" style="fill: rgb(248, 156, 66);"/>
			<path class="st2" d="M304,348.1H136.8c-1.7,0-3-1.4-3-3v-55.6c0-1.7,1.4-3,3-3H304c1.7,0,3,1.4,3,3v55.6&#10;&#9;&#9;&#9;&#9;C307.1,346.8,305.7,348.1,304,348.1z M139.9,342H301v-49.5H139.9V342z" style="fill: rgb(79, 60, 54);"/>
			<g>
				<g>
					<path class="st4" d="M293.6,366.6H282v-45.9h21c7.5,0,13.6,6.1,13.6,13.6v9.3C316.6,356.3,306.3,366.6,293.6,366.6z" style="fill: rgb(237, 210, 183);"/>
					<path class="st2" d="M293.6,369.6H282c-1.7,0-3-1.4-3-3v-45.9c0-1.7,1.4-3,3-3h21c9.2,0,16.7,7.5,16.7,16.7v9.3&#10;&#9;&#9;&#9;&#9;&#9;&#9;C319.7,358,308,369.6,293.6,369.6z M285,363.5h8.6c11,0,19.9-8.9,19.9-19.9v-9.3c0-5.8-4.7-10.6-10.6-10.6h-18V363.5z" style="fill: rgb(79, 60, 54);"/>
					<path class="st2" d="M298.4,355.7c-1.4,0-2.8-0.5-3.7-1.5c-1.3-1.3-1.9-3.2-1.6-5.1c0.2-1.5,1-2.9,2.1-4.2&#10;&#9;&#9;&#9;&#9;&#9;&#9;c0.9-0.9,2.4-1,3.3-0.1c0.9,0.9,1,2.4,0.1,3.3c-0.5,0.5-0.8,1.1-0.9,1.6c-0.1,0.4,0,0.8,0.3,1c0.2,0.2,0.5,0.2,0.6,0.2&#10;&#9;&#9;&#9;&#9;&#9;&#9;c0.4,0,0.9-0.2,1.2-0.5c0.6-0.7,0.9-2,0.6-3.3c-0.2-1.3-0.9-2.7-1.5-4.1l-0.3-0.6c-0.8-1.8-1.7-3.9-1.8-6.3&#10;&#9;&#9;&#9;&#9;&#9;&#9;c-0.1-2.8,1.3-5.4,3.4-6.4c1.7-0.8,3.8-0.7,5.5,0.3c1.4,0.8,2.5,2,3.2,3.7c0.5,1.2,0,2.6-1.2,3.1c-1.2,0.5-2.6,0-3.1-1.2&#10;&#9;&#9;&#9;&#9;&#9;&#9;c-0.3-0.7-0.8-1.2-1.2-1.5c-0.4-0.2-0.9-0.3-1.2-0.1c-0.5,0.2-0.8,1.1-0.8,2.1c0,1.5,0.7,3,1.4,4.5l0.3,0.5&#10;&#9;&#9;&#9;&#9;&#9;&#9;c0.8,1.6,1.6,3.3,1.9,5.3c0.5,2.8-0.2,5.5-1.8,7.3c-1.1,1.2-2.8,1.9-4.4,2C298.5,355.7,298.5,355.7,298.4,355.7z" style="fill: rgb(79, 60, 54);"/>
				</g>
				<g>
					<path class="st4" d="M147.2,366.6h11.7v-45.9h-21c-7.5,0-13.6,6.1-13.6,13.6v9.3C124.3,356.3,134.5,366.6,147.2,366.6z" style="fill: rgb(237, 210, 183);"/>
					<path class="st2" d="M158.9,369.6h-11.7c-14.3,0-26-11.7-26-26v-9.3c0-9.2,7.5-16.7,16.7-16.7h21c1.7,0,3,1.4,3,3v45.9&#10;&#9;&#9;&#9;&#9;&#9;&#9;C161.9,368.3,160.6,369.6,158.9,369.6z M137.9,323.7c-5.8,0-10.6,4.7-10.6,10.6v9.3c0,11,8.9,19.9,19.9,19.9h8.6v-39.8H137.9z" style="fill: rgb(79, 60, 54);"/>
					<path class="st2" d="M142.5,355.7c-0.1,0-0.1,0-0.2,0c-1.7-0.1-3.3-0.8-4.4-2c-1.7-1.8-2.3-4.5-1.8-7.3c0.4-2,1.1-3.7,1.9-5.3&#10;&#9;&#9;&#9;&#9;&#9;&#9;l0.3-0.5c0.7-1.4,1.3-3,1.4-4.5c0-1-0.3-1.9-0.8-2.1c-0.3-0.1-0.8-0.1-1.2,0.1c-0.5,0.3-0.9,0.8-1.2,1.5&#10;&#9;&#9;&#9;&#9;&#9;&#9;c-0.5,1.2-1.9,1.7-3.1,1.2c-1.2-0.5-1.7-1.9-1.2-3.1c0.7-1.6,1.8-2.9,3.2-3.7c1.7-1,3.8-1.1,5.5-0.3c2.2,1.1,3.5,3.6,3.4,6.4&#10;&#9;&#9;&#9;&#9;&#9;&#9;c-0.1,2.4-1,4.5-1.8,6.3l-0.3,0.6c-0.7,1.4-1.3,2.8-1.5,4.1c-0.2,1.3,0,2.6,0.6,3.3c0.3,0.3,0.7,0.5,1.2,0.5&#10;&#9;&#9;&#9;&#9;&#9;&#9;c0.1,0,0.4,0,0.6-0.2c0.2-0.2,0.3-0.6,0.3-1c-0.1-0.5-0.4-1.1-0.9-1.6c-0.9-0.9-0.8-2.4,0.1-3.3c0.9-0.9,2.4-0.8,3.3,0.1&#10;&#9;&#9;&#9;&#9;&#9;&#9;c1.2,1.2,1.9,2.7,2.1,4.2c0.3,1.9-0.3,3.8-1.6,5.1C145.2,355.2,143.9,355.7,142.5,355.7z" style="fill: rgb(79, 60, 54);"/>
				</g>
			</g>
			<g>
				<path class="st4" d="M194.4,236c-22.7,0-41.1,18.4-41.1,41.1v92.7c0,33.9,27.5,52.8,61.5,52.8h11.2c33.9,0,61.5-18.9,61.5-52.8&#10;&#9;&#9;&#9;&#9;&#9;v-92.7c0-22.7-18.4-41.1-41.1-41.1H194.4z" style="fill: rgb(237, 210, 183);"/>
				<path class="st2" d="M226.1,425.6h-11.2c-17.8,0-33.9-5.1-45.4-14.4c-12.5-10.1-19.1-24.5-19.1-41.5v-92.7&#10;&#9;&#9;&#9;&#9;&#9;c0-24.3,19.8-44.1,44.1-44.1h52c24.3,0,44.1,19.8,44.1,44.1v92.7c0,17.1-6.6,31.4-19.1,41.5&#10;&#9;&#9;&#9;&#9;&#9;C259.9,420.5,243.8,425.6,226.1,425.6z M194.4,239c-21,0-38,17.1-38,38v92.7c0,34.4,29.3,49.8,58.4,49.8h11.2&#10;&#9;&#9;&#9;&#9;&#9;c29.1,0,58.4-15.4,58.4-49.8v-92.7c0-21-17.1-38-38-38H194.4z" style="fill: rgb(79, 60, 54);"/>
			</g>
			<path class="st2" d="M220.4,397.7c-6.4,0-12.8-2.9-19-8.7c-0.9-0.9-1-2.4-0.1-3.3c0.9-0.9,2.4-1,3.3-0.1&#10;&#9;&#9;&#9;&#9;c10.6,9.9,20.9,9.9,31.6,0c0.9-0.9,2.4-0.8,3.3,0.1c0.9,0.9,0.8,2.4-0.1,3.3C233.2,394.8,226.8,397.7,220.4,397.7z" style="fill: rgb(79, 60, 54);"/>
			<g>
				<g>
					<path class="st2" d="M258.1,320.1c-7.1,0-12.8,5.7-12.8,12.8v6.9c0,7.1,5.7,12.8,12.8,12.8c7.1,0,12.8-5.7,12.8-12.8v-6.9&#10;&#9;&#9;&#9;&#9;&#9;&#9;C270.9,325.9,265.1,320.1,258.1,320.1z" style="fill: rgb(79, 60, 54);"/>
					<path class="st2" d="M241,320.1c-1.7,0-3.2-0.9-4-2.5c-1.1-2.2-0.2-4.9,2-6c4.8-2.4,21.8-9.6,38.3-2.7c2.3,1,3.4,3.6,2.4,5.9&#10;&#9;&#9;&#9;&#9;&#9;&#9;c-1,2.3-3.6,3.4-5.9,2.4c-10.4-4.3-22.7-1.6-30.9,2.4C242.3,319.9,241.6,320.1,241,320.1z" style="fill: rgb(79, 60, 54);"/>
				</g>
				<g>
					<path class="st2" d="M182.8,320.1c7.1,0,12.8,5.7,12.8,12.8v6.9c0,7.1-5.7,12.8-12.8,12.8S170,347,170,339.9v-6.9&#10;&#9;&#9;&#9;&#9;&#9;&#9;C170,325.9,175.7,320.1,182.8,320.1z" style="fill: rgb(79, 60, 54);"/>
					<path class="st2" d="M199.9,320.1c-0.7,0-1.3-0.1-2-0.5c-8.1-4-20.5-6.8-30.9-2.4c-2.3,1-4.9-0.1-5.9-2.4&#10;&#9;&#9;&#9;&#9;&#9;&#9;c-1-2.3,0.1-4.9,2.4-5.9c16.5-6.9,33.5,0.3,38.3,2.7c2.2,1.1,3.1,3.8,2,6C203.1,319.2,201.5,320.1,199.9,320.1z" style="fill: rgb(79, 60, 54);"/>
				</g>
			</g>
			<g>
				<g>
					<path d="M 257.700006 360.700012 A 3.1 3.1 0 0 1 254.600006 363.800012 A 3.1 3.1 0 0 1 251.500006 360.700012 A 3.1 3.1 0 0 1 254.600006 357.600012 A 3.1 3.1 0 0 1 257.700006 360.700012 Z" class="st5" style="fill: rgb(211, 178, 151);"/>
					<path d="M 263.899988 375.100006 A 3.1 3.1 0 0 1 260.799988 378.200006 A 3.1 3.1 0 0 1 257.699988 375.100006 A 3.1 3.1 0 0 1 260.799988 372.000006 A 3.1 3.1 0 0 1 263.899988 375.100006 Z" class="st5" style="fill: rgb(211, 178, 151);"/>
					<path d="M 273.499994 361.700012 A 3.1 3.1 0 0 1 270.399994 364.800012 A 3.1 3.1 0 0 1 267.299994 361.700012 A 3.1 3.1 0 0 1 270.399994 358.600012 A 3.1 3.1 0 0 1 273.499994 361.700012 Z" class="st5" style="fill: rgb(211, 178, 151);"/>
				</g>
				<g>
					<path d="M 189.400003 360.700012 A 3.1 3.1 0 0 1 186.300003 363.800012 A 3.1 3.1 0 0 1 183.200003 360.700012 A 3.1 3.1 0 0 1 186.300003 357.600012 A 3.1 3.1 0 0 1 189.400003 360.700012 Z" class="st5" style="fill: rgb(211, 178, 151);"/>
					<path d="M 183.1 375.100006 A 3.1 3.1 0 0 1 180 378.200006 A 3.1 3.1 0 0 1 176.9 375.100006 A 3.1 3.1 0 0 1 180 372.000006 A 3.1 3.1 0 0 1 183.1 375.100006 Z" class="st5" style="fill: rgb(211, 178, 151);"/>
					<path d="M 173.6 361.700012 A 3.1 3.1 0 0 1 170.5 364.800012 A 3.1 3.1 0 0 1 167.4 361.700012 A 3.1 3.1 0 0 1 170.5 358.600012 A 3.1 3.1 0 0 1 173.6 361.700012 Z" class="st5" style="fill: rgb(211, 178, 151);"/>
				</g>
			</g>
			<g>
				<path class="st3" d="M260.8,238.6h-75.5v42.2c2.6,6,18.4,17.7,30.4,23c-0.7-7.4,0-11.5,0-11.5s22.5,9.3,33,11.5&#10;&#9;&#9;&#9;&#9;&#9;c-5.2-8.6-5.5-18.2-5.5-18.2l17.7,12.5V238.6z" style="fill: rgb(248, 156, 66);"/>
				<path class="st2" d="M248.6,306.9c-0.2,0-0.4,0-0.6-0.1c-8.1-1.7-22.7-7.3-29.6-10.1c0,1.7,0,4,0.3,6.8c0.1,1.1-0.4,2.1-1.2,2.8&#10;&#9;&#9;&#9;&#9;&#9;c-0.9,0.6-2,0.8-3,0.3c-11.9-5.2-28.8-17.3-31.9-24.6c-0.2-0.4-0.3-0.8-0.3-1.2v-42.2c0-1.7,1.4-3,3-3h75.5c1.7,0,3,1.4,3,3&#10;&#9;&#9;&#9;&#9;&#9;v59.6c0,1.1-0.6,2.2-1.7,2.7c-1,0.5-2.2,0.4-3.2-0.2l-11.8-8.4c0.7,3,1.9,6.6,4,10c0.6,1,0.6,2.3-0.1,3.3&#10;&#9;&#9;&#9;&#9;&#9;C250.6,306.4,249.6,306.9,248.6,306.9z M215.6,289.3c0.4,0,0.8,0.1,1.2,0.2c0.2,0.1,15.2,6.3,26.2,9.7c-2.7-7-2.9-13.1-2.9-13.5&#10;&#9;&#9;&#9;&#9;&#9;c0-1.2,0.6-2.2,1.6-2.8c1-0.5,2.3-0.5,3.2,0.2l12.8,9.1v-50.6h-69.4v38.5c2.4,4.3,13.4,13.1,24,18.7c-0.1-4.4,0.3-6.9,0.4-7&#10;&#9;&#9;&#9;&#9;&#9;c0.2-0.9,0.7-1.7,1.5-2.1C214.6,289.4,215.1,289.3,215.6,289.3z" style="fill: rgb(79, 60, 54);"/>
			</g>
			<g>
				<g>
					<path class="st1" d="M222.6,193.1h-4.4c-5.5,0-9.9,4.4-9.9,9.9v9.7h24.2V203C232.5,197.5,228.1,193.1,222.6,193.1z" style="fill: rgb(138, 208, 243);"/>
					<path class="st2" d="M232.5,215.7h-24.2c-1.7,0-3-1.4-3-3V203c0-7.2,5.8-13,13-13h4.4c7.2,0,13,5.8,13,13v9.7&#10;&#9;&#9;&#9;&#9;&#9;&#9;C235.6,214.4,234.2,215.7,232.5,215.7z M211.4,209.6h18.1V203c0-3.8-3.1-6.9-6.9-6.9h-4.4c-3.8,0-6.9,3.1-6.9,6.9V209.6z" style="fill: rgb(79, 60, 54);"/>
				</g>
				<path class="st1" d="M280.1,217.5L234,207.2c-8.9-2-18.2-2-27.2,0l-46.1,10.3c-13.8,3.1-23.7,15.4-23.7,29.5l-0.2,47.5&#10;&#9;&#9;&#9;&#9;&#9;c55.7-8.2,111.5-8.2,167.2,0l-0.2-47.5C303.8,232.9,294,220.6,280.1,217.5z M248.6,273.2c-18.8-0.9-37.6-0.9-56.4,0v-5.9&#10;&#9;&#9;&#9;&#9;&#9;c0-11.6,9.4-21.1,21.1-21.1h14.3c11.6,0,21.1,9.4,21.1,21.1V273.2z" style="fill: rgb(138, 208, 243);"/>
				<path class="st2" d="M304,297.6c-0.1,0-0.3,0-0.4,0c-55.2-8.1-111.1-8.1-166.3,0c-0.9,0.1-1.8-0.1-2.4-0.7&#10;&#9;&#9;&#9;&#9;&#9;c-0.7-0.6-1.1-1.4-1.1-2.3L134,247c0-7.5,2.6-14.9,7.4-20.8c4.7-5.9,11.4-10,18.7-11.7l46.1-10.3c9.3-2.1,19.2-2.1,28.5,0&#10;&#9;&#9;&#9;&#9;&#9;l46.1,10.3l0,0c7.4,1.7,14,5.8,18.7,11.7c4.7,5.9,7.3,13.3,7.4,20.8l0.2,47.5c0,0.9-0.4,1.7-1.1,2.3&#10;&#9;&#9;&#9;&#9;&#9;C305.5,297.4,304.8,297.6,304,297.6z M220.4,285.4c26.9,0,53.8,1.9,80.5,5.6l-0.2-44c0-12.8-8.8-23.8-21.3-26.6l-46.1-10.3&#10;&#9;&#9;&#9;&#9;&#9;c-8.4-1.9-17.4-1.9-25.8,0l-46.1,10.3c-12.5,2.8-21.3,13.7-21.3,26.6l-0.2,44C166.6,287.3,193.5,285.4,220.4,285.4z&#10;&#9;&#9;&#9;&#9;&#9; M248.6,276.2c-0.1,0-0.1,0-0.2,0c-18.6-0.9-37.5-0.9-56.1,0c-0.8,0-1.6-0.3-2.3-0.8c-0.6-0.6-0.9-1.4-0.9-2.2v-5.9&#10;&#9;&#9;&#9;&#9;&#9;c0-13.3,10.8-24.1,24.1-24.1h14.3c13.3,0,24.1,10.8,24.1,24.1v5.9c0,0.8-0.3,1.6-0.9,2.2C250.2,275.9,249.4,276.2,248.6,276.2z&#10;&#9;&#9;&#9;&#9;&#9; M220.4,269.4c8.4,0,16.8,0.2,25.2,0.5v-2.7c0-9.9-8.1-18-18-18h-14.3c-9.9,0-18,8.1-18,18v2.7&#10;&#9;&#9;&#9;&#9;&#9;C203.6,269.6,212,269.4,220.4,269.4z" style="fill: rgb(79, 60, 54);"/>
				<path class="st2" d="M279.8,293.7c-1.7,0-3-1.4-3-3l-0.1-43.6c0-12.8-6.2-24-14.7-26.6l-32.7-10.3c-5.8-1.8-11.7-1.8-17.4,0&#10;&#9;&#9;&#9;&#9;&#9;L179,220.4c-8.5,2.7-14.7,13.9-14.7,26.6l-0.1,43.6c0,1.7-1.4,3-3,3c0,0,0,0,0,0c-1.7,0-3-1.4-3-3.1l0.1-43.6&#10;&#9;&#9;&#9;&#9;&#9;c0-15.6,7.8-28.9,19-32.4l32.7-10.3c6.9-2.2,14.2-2.2,21.1,0l32.7,10.3c11.1,3.5,18.9,16.9,19,32.4l0.1,43.6&#10;&#9;&#9;&#9;&#9;&#9;C282.8,292.3,281.5,293.7,279.8,293.7C279.8,293.7,279.8,293.7,279.8,293.7z" style="fill: rgb(79, 60, 54);"/>
				<path class="st6" d="M192.2,273.2v16c18.8-0.9,37.6-0.9,56.4,0v-16C229.8,272.2,211,272.2,192.2,273.2z" style="fill: rgb(249, 249, 247);"/>
				<path class="st2" d="M248.6,292.2c-0.1,0-0.1,0-0.2,0c-18.6-0.9-37.5-0.9-56.1,0c-0.8,0-1.6-0.3-2.3-0.8&#10;&#9;&#9;&#9;&#9;&#9;c-0.6-0.6-0.9-1.4-0.9-2.2v-16c0-1.6,1.3-3,2.9-3c18.8-0.9,37.9-0.9,56.7,0c1.6,0.1,2.9,1.4,2.9,3v16c0,0.8-0.3,1.6-0.9,2.2&#10;&#9;&#9;&#9;&#9;&#9;C250.2,291.9,249.4,292.2,248.6,292.2z M220.4,285.4c8.4,0,16.8,0.2,25.2,0.5v-9.9c-16.7-0.7-33.6-0.7-50.3,0v9.9&#10;&#9;&#9;&#9;&#9;&#9;C203.6,285.6,212,285.4,220.4,285.4z" style="fill: rgb(79, 60, 54);"/>
				<g>
					<path d="M 210.399997 280.799988 A 3.2 3.2 0 0 1 207.199997 283.999988 A 3.2 3.2 0 0 1 203.999997 280.799988 A 3.2 3.2 0 0 1 207.199997 277.599988 A 3.2 3.2 0 0 1 210.399997 280.799988 Z" class="st2" style="fill: rgb(79, 60, 54);"/>
					<path d="M 223.599994 280.799988 A 3.2 3.2 0 0 1 220.399994 283.999988 A 3.2 3.2 0 0 1 217.199994 280.799988 A 3.2 3.2 0 0 1 220.399994 277.599988 A 3.2 3.2 0 0 1 223.599994 280.799988 Z" class="st2" style="fill: rgb(79, 60, 54);"/>
					<path d="M 236.899997 280.799988 A 3.2 3.2 0 0 1 233.699997 283.999988 A 3.2 3.2 0 0 1 230.499997 280.799988 A 3.2 3.2 0 0 1 233.699997 277.599988 A 3.2 3.2 0 0 1 236.899997 280.799988 Z" class="st2" style="fill: rgb(79, 60, 54);"/>
				</g>
			</g>
		</g>
</svg>